<svg xmlns="http://www.w3.org/2000/svg" width="800" height="800" viewBox="0 0 100 100" role="img" aria-label="Email"><path fill="#2f80ed" d="M12 24h76c4.4 0 8 3.6 8 8v46c0 4.4-3.6 8-8 8H12c-4.4 0-8-3.6-8-8V32c0-4.4 3.6-8 8-8Z"/><path fill="#fff" d="M50 57.4 12.5 33.2c.5-.7 1.4-1.2 2.3-1.2h70.4c.9 0 1.8.5 2.3 1.2L50 57.4Z"/><path fill="#d8eaff" d="M42.6 55.4 11.9 78.1c-.5-.5-.9-1.3-.9-2.1V38.9l31.6 16.5Zm14.8 0L89 38.9V76c0 .8-.4 1.6-.9 2.1L57.4 55.4Z"/><path fill="#fff" d="m50 64.6 6.1-4.2 27.7 20.5H16.2l27.7-20.5 6.1 4.2Z"/></svg>
