<svg xmlns="http://www.w3.org/2000/svg" width="1028.861" height="955.949" viewBox="0 0 272.219 252.928"><g style="display:inline"><path d="M517.463 55.396a439.302 425.465 0 0 0-439.3 425.465 439.302 425.465 0 0 0 69.003 228.918 149.091 40.923 72.581 0 0 6.242 18.893 149.091 40.923 72.581 0 0 82.381 110.295 149.091 40.923 72.581 0 0 9.348-24.254 439.302 425.465 0 0 0 272.326 91.613 439.302 425.465 0 0 0 439.303-425.465A439.302 425.465 0 0 0 517.463 55.396Z" style="fill:none;fill-opacity:.504032;stroke:#fff;stroke-width:22.58267745;stroke-linejoin:miter;stroke-miterlimit:4;stroke-dasharray:none;stroke-opacity:1;paint-order:normal" transform="scale(.26458)"/></g><g style="display:inline" transform="translate(-12.813 -23.214)"><path d="M137.274 177.984s5.029-1.799 6.966-1.94 8.694-.331 9.166-.19 3.355-.472 3.732.095 1.182 5.197.945 5.859c-.236.661-1.039 4.488-1.275 4.913s-2.268 3.78-3.26 4.63-4.922 3.121-7.324 2.977c-2.4-.144-5.15-2.079-5.716-2.788-.567-.708-2.93-5.575-3.072-7.181-.141-1.607-.162-6.375-.162-6.375z" style="fill:none;stroke:#000;stroke-width:.264583px;stroke-linecap:butt;stroke-linejoin:miter;stroke-opacity:1"/><path d="M149.65 42.32c-30.414.057-59.563 11.469-81.049 31.732-21.485 20.263-33.552 47.722-33.552 76.35 0 43.392 27.57 82.577 70.015 99.511a31 31 0 0 1-1.064-.984c-1.953-1.912-1.3-3.207-1.336-5.988-.063-4.888.373-11.881-.423-17.095-2.496-16.36-6.664-35.255-6.664-60.22 0-15.61-.823-42.547 6.577-53.044a198 198 0 0 0 6.37-9.64c1.072-1.722-4.741-6.853-5.44-9.922-1.199-5.252 1.989-8.798 3.687-10.246 4.127-3.521 6.642-2.503 11.51.498 1.403.866 5.587 8.372 6.82 7.84 7.522-3.24 22.536-8.703 31.293-9.202 4.368-.25 9.584-1.218 21.145 1.262 3.139.673 10.152 2.8 17.813 5.948.903.37 2.702 2.256 4.907.562 3.407-2.617 7.786-9.499 11.326-10.482 5.754-1.599 9.236 4.416 11.485 6.912.2.222-1.63 7.07-4.35 11.106-2.473 3.67-5.045 5.517-5.045 5.517-.69-1.021.743 1.193 1.21 2.154 1.486 3.055 4.91 5.987 7.13 9.254 2.502 3.684 3.972 8.279 4.842 12.07 1.246 5.424.394 7.519 1.248 13.125.74 4.848 1.841 10.643 3.579 20.703 1.737 10.062 4.249 20.656 4.625 30.42.36 9.338.262 16.42.266 22.725.002 3.47-.5 6.758-.93 8.192 18.338-19.707 29.062-44.778 29.062-70.976 0-28.665-12.098-56.156-33.632-76.425-21.535-20.27-50.742-31.657-81.197-31.657z" style="display:inline;opacity:1;fill:#f5d089;fill-opacity:1;stroke:none;stroke-width:.299365"/><path d="M236.794 190.363c.36 9.337.265 15.387.36 22.96.046 3.66-1.023 8.75-1.023 8.75-26.813 23.841-49.462 38.911-85.664 38.911-20.18 0-38.288-4.256-46.407-12.202-1.953-1.912-1.3-3.206-1.336-5.987-.063-4.888.372-11.882-.423-17.095-2.496-16.36-6.664-35.256-6.664-60.22 0-15.611-.823-42.547 6.577-53.044a198 198 0 0 0 6.37-9.64c1.072-1.722-4.741-6.854-5.441-9.922-1.198-5.252 1.99-8.798 3.688-10.247 4.127-3.52 6.642-2.502 11.51.499 1.403.865 5.586 8.372 6.82 7.84 7.521-3.24 22.536-8.703 31.293-9.202 4.368-.25 9.585-1.218 21.145 1.261 3.139.674 10.152 2.8 17.813 5.949.903.37 2.701 2.256 4.906.562 3.408-2.618 7.786-9.499 11.327-10.482 5.754-1.599 9.236 4.416 11.485 6.911.2.223-1.63 7.07-4.35 11.107-2.473 3.67-5.045 5.516-5.045 5.516-.69-1.02.742 1.194 1.21 2.155 1.485 3.055 4.91 5.986 7.13 9.254 2.502 3.684 3.788 7.72 5.043 11.401 1.78 5.224.648 8.814 1.448 14.428 1.357 9.526 1.19 5.7 2.827 16.12 1.638 10.419 5.025 24.652 5.401 34.417" style="display:inline;fill:#50d9ff;fill-opacity:1;stroke:none;stroke-width:.88869"/><path d="M218.93 111.89c8.195 9.89 7.333 28.121 12.424 50.634 5.506 24.35 3.837 42.945 3.324 59.487-.12 3.856.337 2.174-2.084 5.047-9.068 7.894-48.224 35.913-48.442 27.698 6.41-5.007 25.382-18.427 31.718-29.038 6.153-10.306 10.36-24.329 11.745-37.285 2.023-18.93.264-45.28-5.26-56.872-5.47-11.475-3.313-1.006-5.162-12.96-.674-4.357-2.442-8.746-4.484-12.443-.13-.355 1.823.123 3.481 2.082 2.277 2.688.438.85 2.74 3.65" style="display:inline;fill:#000;fill-opacity:.100806;stroke:none;stroke-width:.88869"/><path d="M138.164 139.739c0 4.03-.161 9.54-1.932 12.495-1.91 3.187-3.976 4.82-6.705 7.438-4.576 4.39-11.21 8.642-17.689 8.642-8.733 0-14.56-1.325-19.12-8.622-2.84-4.546-6.28-13.636-6.28-19.358 0-14.905 11.49-26.987 25.665-26.987s26.061 11.487 26.061 26.392" style="display:inline;fill:#fff;fill-opacity:1;stroke:none;stroke-width:.369428"/><ellipse cx="202.061" cy="131.603" rx="25.665" ry="26.987" style="display:inline;fill:#fff;fill-opacity:1;stroke:none;stroke-width:.369427"/><ellipse cx="-4.532" cy="216.053" rx="10.914" ry="37.639" style="display:inline;opacity:1;fill:#828282;fill-opacity:1;stroke:none;stroke-width:.245759" transform="matrix(.72462 -.68915 .3072 .95164 0 0)"/><path d="M123.744 194.838s-4.38 2.432-5.887 4.597c-.748 1.074-1.392 2.24-1.089 3.896.443 2.418 2.287 4.984 3.629 7.353 1.582 2.795 2.645 5.213 2.51 5.293-.808 2.034-2.875 1.188-4.719 1.702-1.759.49-3.311 2.391-3.492 2.215-3.485-3.487-5.067-3.608-5.705-6.82-.711-3.582.051-4.706-1.893-6.179-.697-.529-.774-.929-1.94-.15-1.63 1.087-15 12.846-16.385 14.272-6.02 6.194-7.52 10.593-10.84 15.437-.198.287-.843 1.504-1 1.477-.132-.022-.022-.783-.095-1.716-.098-1.253-.398-3.08-.856-6.352-.764-5.453-1.66-10.212-3.1-16.887-.18-.837-4.246.255-4.8-.454-.482-.618-2.138-5.626-2.401-6.737-.346-1.462 5.159-2.188 4.75-3.623-4.052-14.23-13.054-28.008-13.054-28.008s8.835 5.422 21.486 6.398c10.002.773 24.184-1.061 39.722-3.573 11.72-1.895 8.44 7.92 9.211 10.56 1.543 5.29-4.052 7.3-4.052 7.3" style="display:inline;fill:#f2f2f2;fill-opacity:1;stroke:none;stroke-width:.264583px;stroke-linecap:butt;stroke-linejoin:miter;stroke-opacity:1"/><path d="M191.946 156.435c11.266 5.337 24.944.716 31.524-10.059 7.9-12.639 4.654-29.828-7.365-37.34-.662-.414-1.687-1.139-2.386-1.487 9.31 8.405 11.262 23.194 4.282 34.362-7.395 11.83-21.912 14.981-33.79 9.057 1.37 1.62 2.874 2.75 4.49 3.69 1.037.605 1.887 1.161 3.245 1.777" style="display:inline;fill:#000;fill-opacity:.108434;stroke:none;stroke-width:.369427"/><path d="M117.546 207.72s1.015 1.03 1.426 2.055c.487 1.213.372 2.551.208 4.047-.302 2.76-4.687 6.422-4.687 6.422l-6.16 7.403s-1.17 2.007-4.238 2.231c-1.309.096-3.534-.141-4.657-1.144-1.51-1.348-1.744-3.737-1.895-5.33-.265-2.778 2.526-5.737 4.052-7.577 2.783-3.355 7.621-9.867 10.045-9.678 2.51.196 3.453.206 4.357.601.368.16 1.549.97 1.549.97" style="fill:#f5ae86;fill-opacity:1;stroke:none;stroke-width:.264583px;stroke-linecap:butt;stroke-linejoin:miter;stroke-opacity:1"/><path d="M215.667 202.812s1.244-.235 2.184.006c1.112.283 2.014 1.11 3.004 2.063 1.826 1.759 2.258 7.235 2.258 7.235l2.224 8.937s.854 2.027-.519 4.572c-.585 1.086-1.868 2.71-3.148 3.045-1.72.45-3.548-.681-4.765-1.438-2.123-1.32-2.848-5.152-3.403-7.37-1.013-4.042-3.26-11.446-1.913-13.254 1.394-1.873 1.873-2.612 2.608-3.108.3-.202 1.47-.688 1.47-.688" style="display:inline;fill:#f5ae86;fill-opacity:1;stroke:none;stroke-width:.24257px;stroke-linecap:butt;stroke-linejoin:miter;stroke-opacity:1"/><path d="M158.647 171.382s.159 1.436-.154 2.496c-.37 1.253-.629 1.042-1.684 2.114-1.949 1.979-7.262.844-7.262.844l-10.548 2.254s-1.698.718-3.782-.346c-1.169-.597-1.429-2.832-1.688-4.315-.35-1.993.948-4.377 1.816-5.72 1.515-2.345 4.977-1.283 7.315-1.78 2.064-.44 2.683-4.02 4.954-4.236 2.418-.23 6.453 2.943 7.373 3.794 1.848 1.71 2.582 2.303 3.047 3.173.189.354.613 1.722.613 1.722" style="display:inline;fill:#f5ae86;fill-opacity:1;stroke:none;stroke-width:.264583px;stroke-linecap:butt;stroke-linejoin:miter;stroke-opacity:1"/><path d="M101.998 167.193c1.96.561 2.957.694 3.443.76 1.808.245 3.252.333 4.734.374 1.403.039 2.849.045 4.37-.234 4.361-.802 9.093-3.58 12.654-6.536 2.81-2.333 7.403-5.762 9.535-10.161 1.38-3.555 1.555-7.027 1.513-10.256-.028-2.166-.159-4.163-.437-5.86-.372-2.27-.85-3.866-1.344-5.086-.59-1.46-1.9-4.129-3.147-5.882-3.132-3.938-5.128-5.414-6.146-6.145-.115-.083.355.364.36.543 4.618 9.98 5.706 19.22 2.76 27.372-4.589 11.001-15.394 21.458-32.392 18.49 0 0-1.334-.363-1.186-.21.157.159.61.545 1.256.96.604.386 1.388.796 1.931 1.069.668.336 2.096.802 2.096.802" style="display:inline;fill:#000;fill-opacity:.108434;stroke:none;stroke-width:.485901"/><path d="M158.684 172.155s.088-.758-.607-2.224c-.57-1.2-1.465-1.905-2.142-2.57-1.182-1.159-2.072-1.788-2.072-1.788s.043.07.166.56c.16.638.186 2.202-.118 3.157-.524 1.645-.944 2.396-1.42 2.747-.477.351-2.43 1.452-3.803 1.921-1.717 1.073-1.665 1.401-1.719 1.615-.053.214.866-.12 1.273-.08.406.041 3.135-.236 3.642-.161.596.088 1.493.174 2.58.476.324.09 1.733.678 1.863.596.573-.357 1.536-1.108 1.96-1.918.366-.698.397-2.331.397-2.331" style="fill:#000;fill-opacity:.15261;stroke:none;stroke-width:.264583px;stroke-linecap:butt;stroke-linejoin:miter;stroke-opacity:1"/><path d="M99.106 228.391c.68.615 1.182 1.075 2.439 1.273.505.08 1.067.163 1.718.202.967.058 1.853-.118 2.193-.227.508-.162.368-.114.687-.231.25-.092.724-.353.767-.45.031-.07-.2-.059-.288-.096-.744-.314-3.308-1.364-3.54-3.15-.209-1.615-.405-2.45.265-4.432.517-1.525 1.555-3.34 2.646-4.96 1.092-1.621 1.588-4.796 1.687-5.788.1-.993.033-1.919.033-1.919s-9.263 11.14-9.387 11.562c-.133.453-.572 1.29-.68 1.979-.132.856-.075 1.743.06 2.599.15.952.422 1.896.83 2.77.146.314.313.636.57.868" style="display:inline;fill:#000;fill-opacity:.15261;stroke:none;stroke-width:.264583px;stroke-linecap:butt;stroke-linejoin:miter;stroke-opacity:1"/><path d="M137.274 177.984s-.328 3.788-.094 4.77c.234.983 1.403 5.707 1.871 6.642s1.92 4.618 4.772 4.788 7.342-.579 8.418-1.42c1.076-.842 2.432-2.573 3.695-4.958s1.964-4.07 1.964-6.408.28-3.695-.608-4.35c-.889-.655-3.695-1.918-6.314-1.73s-8.976.605-11.036 1.448-2.668 1.218-2.668 1.218" style="fill:#2e2d2f;fill-opacity:1;stroke:none;stroke-width:.264583px;stroke-linecap:butt;stroke-linejoin:miter;stroke-opacity:1"/><path d="M215.154 203.68c-.595.414-.843 1.017-.877 2.803-.033 1.786.761 6.317.893 6.979.133.661 1.852 7.375 2.183 8.07.331.694 1.97 3.32 2.646 4.067.96 1.059 2.071 1.615 3.097 1.483s-.203 1.403-1.691 1.635c-.411.064-.966.078-1.45-.035-.395-.091-.707-.22-1.235-.457-.605-.272-1.351-.66-1.893-1.05a4.1 4.1 0 0 1-.966-.947c-.23-.324-.926-1.275-1.482-3.15-.493-1.662-1.027-3.806-1.475-5.49-.352-1.321-.614-2.447-.73-2.934-.197-.838-.458-2.153-.712-3.38a12.5 12.5 0 0 1-.252-1.87c-.034-.664-.042-1.2.027-1.689.03-.215.087-.458.151-.634.099-.271.216-.443.286-.56.496-.826 1.71-2.667 2.703-3.122.235-.108.702-.365 1.03-.483.371-.134.673-.153.673-.153z" style="fill:#000;fill-opacity:.15261;stroke:none;stroke-width:.264583px;stroke-linecap:butt;stroke-linejoin:miter;stroke-opacity:1"/><path d="M139 179.09s3.465-1.808 5.383-1.995 6.72-.79 7.25.093c.754 1.257.374 8.513-.187 9.074-.562.561-3.135 2.097-6.034 2.339-2.806.234-5.379-.468-5.94-2.386a259 259 0 0 1-1.356-4.91z" style="fill:#f2f2f2;fill-opacity:1;stroke:none;stroke-width:.264583px;stroke-linecap:butt;stroke-linejoin:miter;stroke-opacity:1"/><path d="M139.322 160.112c1.984-.331 4.564-.926 5.093-.43s1.157 3.109.893 4.167c-.265 1.058-1.852 2.745-2.712 3.109s-5.027.496-5.424.099-2.58-2.315-2.084-3.737 2.68-2.845 4.234-3.208" style="fill:#614f4b;fill-opacity:1;stroke:none;stroke-width:.264583px;stroke-linecap:butt;stroke-linejoin:miter;stroke-opacity:1"/><path d="M147.094 188.356s-4.167 1.852-3.837 2.447c.331.596.96 2.646 2.382 2.878 1.422.231 2.745-.364 4.2-.695s3.737-1.157 4.2-2.083-1.885-3.473-2.745-3.275c-.86.199-4.2.728-4.2.728" style="fill:#d14c45;fill-opacity:1;stroke:none;stroke-width:.264583px;stroke-linecap:butt;stroke-linejoin:miter;stroke-opacity:1"/><path d="M71.665 179.543c4.085.843 7.853 1.095 9.776 1.185.208.01.108.285.217.357.058.14 5.5 8.696 7.91 17.47 2.396 8.72 1.758 17.655 2.427 18.758.058.095.273.48.23.542-.043.06-.687.613-.734.655-.133.12-.194.179-.301.274-.072.063-.164.133-.318.284-1.04 1.02-2.572 2.179-4.685 4.84-1.155 1.455-2.26 2.821-3.273 4.4-1.169 1.82-2.222 3.852-3.212 5.477-1.33 2.183-1.675 2.43-2.736 4.149-.02.031-.106.031-.099-.09.058-.964-.045-2.05-.274-3.74a331 331 0 0 0-.452-3.172c-.414-2.81-.466-3.293-.694-4.737-.077-.489-.423.007-.423.007.041.58-.673.943-1.157 1.077-3.34.921-7.986-6.394-10.375-16.34s-1.617-18.755 1.723-19.677c.12-.033 1.078-.306.944-.616-.496-1.14-1.876-4.16-2.135-4.65-1.354-2.564-4.8-8.78-5.678-10.292-.202-.277-1.024-1.557-.835-1.45 1.657.942 3.622 1.844 5.736 2.725 2.888 1.079 5.02 1.654 8.418 2.564" style="display:inline;opacity:1;fill:#000;fill-opacity:.15261;stroke:none;stroke-width:.275553"/><ellipse cx="142.728" cy="164.147" rx="1.124" ry=".926" style="opacity:1;fill:#b3a299;fill-opacity:1;stroke:none;stroke-width:.204666"/><path d="M123.57 176.627s-4.958-.234-5.426.28c-.468.515 1.076 2.012 1.684 2.573.608.562 2.905 3.554 3.601 5.706 1.438 4.444.888 8.737-.007 9.475-.894.738 4.751-1.511 4.751-1.511s.91-1.42 1.523-2.491c.936-1.637.608-5.94.468-6.829-.784-2.613-3.071-5.468-5.145-6.642-.701-.377-1.45-.56-1.45-.56z" style="fill:#38393c;fill-opacity:1;stroke:none;stroke-width:.264583px;stroke-linecap:butt;stroke-linejoin:miter;stroke-opacity:1"/><path d="M216.966 94.014c4.481-4.67 5.55-9.695 5.491-6.026-.13 8.195-6.235 12.916-7.537 13.551-2.625.49-2.212-1.089-6.43-4.692-2.06-2.592-6.88-4.49-7.583-6.027-1.058-3.072 12.995 9.041 16.059 3.194" style="display:inline;fill:#000;fill-opacity:.0685484;stroke:none;stroke-width:.306424"/></g><g style="display:inline"><path d="M-110.508 237.982c-14.488-1.42-23.302-3.45-35.725-8.227-7.01-2.696-19.223-9.355-24.543-13.382-1.258-.952-2.408-1.732-2.554-1.732-.299 0-.945 1.727-1.3 3.474-.13.635-.716 1.556-1.308 2.054-3.732 3.14-9.732-2.266-15.678-14.13-2.55-5.085-5.283-11.536-6.77-15.974-.611-1.827-1.808-4.399-2.66-5.716-18.792-29.06-22.112-67.406-8.643-99.845 5.68-13.68 13.748-25.625 24.675-36.526 15.113-15.077 33.161-25.257 54.05-30.486 40.865-10.228 83.752 1.414 112.982 30.671 33.929 33.961 42.35 84.353 21.165 126.646-17.784 35.501-53.529 59.395-94.283 63.023-3.958.353-16.366.449-19.408.15m18.398-5.848c17.168-1.447 34.81-7.091 49.178-15.73 8.636-5.194 15.445-10.718 23.643-19.181l1.73-1.786.672-6.92c1.313-13.523.935-19.395-2.856-44.431-1.685-11.127-4.377-25.727-4.826-26.176-.094-.094-.568.728-1.054 1.827-2.891 6.538-8.514 12.453-14.376 15.124-1.879.856-2.618.971-7.099 1.105-6.614.198-9.475-.226-12.758-1.891-7.814-3.965-13.128-10.191-15.695-18.39-.742-2.37-.84-3.379-.84-8.753s.096-6.38.837-8.74c1.587-5.055 3.828-8.821 7.517-12.636 3.827-3.958 8.346-6.673 12.901-7.752 3.826-.906 10.141-.303 14.61 1.395 1.003.381 1.824.563 1.824.405 0-.617-3.337-4.68-5.453-6.64-7.602-7.04-22.459-12.617-37.511-14.078-7.177-.697-20.393.45-26.899 2.335-15.353 4.45-29.71 12.961-36.13 21.419-1.276 1.68-3.471 5.509-3.273 5.707.076.076 1.261-.194 2.634-.599 1.908-.564 3.545-.742 6.96-.76 3.935-.02 4.745.084 6.808.871 7.398 2.822 13.174 8.173 16.577 15.354 1.941 4.098 2.703 7.61 2.945 13.576.188 4.654.13 5.478-.543 7.696-1.486 4.89-5.369 9.498-12.586 14.935-4.149 3.125-6.932 4.625-10.083 5.435-4.283 1.1-12.556-.011-17.499-2.351-1.131-.536-2.136-.894-2.233-.797-.545.545.229 11.198.866 11.926.223.254 15.983-1.52 19.5-2.196 2.62-.503 6.464-.455 7.781.097 1.755.735 5.42 4.86 6.105 6.87.671 1.967.755 5.406.184 7.465-.228.82-1.004 2.03-1.833 2.858l-1.438 1.437.204 3.751c.27 4.947.708 6.831 2.803 12.045.964 2.4 2.14 6.098 2.613 8.217a695 695 0 0 0 1.579 6.889c2.402 10.157.27 17.03-6.278 20.233-3.814 1.867-8.471.613-11.688-3.145-2.476-2.892-4.927-8.67-5.56-13.107-.178-1.249-.407-2.354-.508-2.455-.102-.102-.947.486-1.88 1.306-1.158 1.02-2.363 1.677-3.813 2.08l-2.12.59.224 2.876c.123 1.581.225 5.234.226 8.116l.002 5.242 4.555 1.786c10.984 4.31 22.653 6.954 33.849 7.672 4.27.274 13.559.207 17.505-.126m58.942-28.145c-1.496-.697-3.383-2.599-4.233-4.267-.704-1.381-3.445-14.04-3.445-15.91 0-.985.359-2.26.983-3.49.831-1.642 1.24-2.045 2.665-2.626 2.313-.943 4.147-.4 6.357 1.881 1.9 1.961 2.34 3.179 4.147 11.486 1.37 6.295 1.42 8.162.29 10.546-1.212 2.553-4.164 3.592-6.764 2.38m3.5-1.524c2.165-.987 2.76-3.925 1.695-8.373a266 266 0 0 1-1.45-6.496c-1.059-5.1-2.062-6.987-4.35-8.177-1.488-.775-2.395-.607-3.683.68-1.751 1.752-1.88 3.395-.704 9.029 2.019 9.674 2.756 11.485 5.304 13.039 1.28.78 1.983.846 3.187.298m-77.804-32.634c-.196-.077-.787-.234-1.312-.35-2.305-.506-4.424-3.542-5.97-8.553-.416-1.347-.756-2.995-.756-3.662 0-.987-.137-1.213-.738-1.213-2.092 0-3.191-1.906-3.191-5.537 0-2.5.87-5.62 2.192-7.862.74-1.253.749-1.368.186-2.32-.76-1.287-.745-2.066.064-3.393 1.056-1.732 4.026-3.128 7-3.29 2.796-.154 4.086.29 4.669 1.61.226.512.876.947 1.777 1.19 4.146 1.116 9.179 5.095 10.849 8.576 1.15 2.398 1.37 4.884.566 6.408-.495.937-.656 2.105-.687 4.976-.05 4.574-.855 6.943-3.277 9.637-2.59 2.88-4.306 3.705-7.953 3.823-1.684.055-3.222.037-3.419-.04m8.538-2.245c1.833-.949 5.5-6.224 5.32-10.111 0 0 .178-3.386-.433-4.912-.186-.463-.935-1.17-.935-1.17l-8.256.523c-1.29.081-3.071.315-6.085 1.324-.069.024-4.792.894-4.711 2.111.162 2.455.57 5.694.718 6.141.147.442 2.015 7.3 5.038 7.292.985-.002 4.406.596 6.537.138 1.013-.218 2.807-1.336 2.807-1.336m-11.66-15.676c3.982-1.22 4.49-1.29 10.041-1.386 6.294-.11 6.684-.232 6.275-1.973-.7-2.984-3.778-6.579-7.018-8.198-2.376-1.187-3.496-1.374-3.496-.582 0 .899-1.74 2.61-3.304 3.251-.843.346-2.632.656-4.02.698l-2.5.075-.798 1.574c-.988 1.952-1.604 5.075-1.31 6.643.29 1.543.79 1.535 6.13-.102m1.785-10.914c.64-.199 1.324-.66 1.519-1.024.49-.917.444-3.334-.075-3.853-1.11-1.111-6.046-.041-7.546 1.636-.603.675-.61.808-.09 1.811 1.136 2.198 2.614 2.54 6.192 1.43m-42.068 75.107c0-2.71-.102-6.135-.227-7.611-.207-2.45-.314-2.737-1.224-3.274-1.591-.94-2.584-2.9-2.812-5.55l-.202-2.353-1.43 2.322-1.428 2.322v3.93c0 4.287.416 6.019 2.444 10.165 1.229 2.513 3.884 5.59 4.496 5.212.243-.15.383-2.043.383-5.163m-25.819 2.215c.536-.82.63-1.766.61-6.163-.012-2.857-.226-6.48-.475-8.052-.708-4.465-2.173-12.365-2.566-13.844-.356-1.337-.36-1.34-2.279-1.34-1.057 0-2.174-.096-2.481-.214-.326-.125-1.011-1.623-1.637-3.577-1.6-4.992-1.5-5.518 1.281-6.748l1.905-.842-.56-1.9c-1.23-4.18-3.882-11.065-5.863-15.224-3.711-7.789-7.077-12.018-9.385-11.794-1.02.098-1.229.33-2.027 2.253-.849 2.044-.89 2.477-.883 9.289.005 5.105.192 8.317.654 11.253 2.253 14.333 4.633 22.036 10.32 33.4 3.745 7.484 6.703 11.668 9.508 13.447 2.038 1.292 3.06 1.307 3.878.056m52.25-.459c2.113-1.078 3.87-3.09 4.474-5.127.67-2.255.674-6.5.01-9.523-1.945-8.853-2.874-12.202-4.605-16.611-1.963-4.998-2.731-8.468-2.731-12.33 0-.957-.155-1.835-.343-1.951-.382-.236-4.698 1.829-5.082 2.431-.134.211-.167.508-.073.66.093.152-.181.887-.61 1.633l-.781 1.356 3.266 6.122c1.796 3.366 3.265 6.38 3.265 6.695 0 .87-2.039 1.928-4.248 2.204-1.665.208-2.224.484-3.58 1.765l-1.608 1.52.406 4.771c.456 5.35 1.406 8.662 3.451 12.023 1.56 2.564 2.974 3.923 4.735 4.55 1.871.668 2.428.642 4.054-.188m-36.419-4.067c-1.134-3.297-1.605-7.579-1.161-10.566.499-3.36 1.978-6.143 6.466-12.163l.932-1.25-1.845 1.526c-3.387 2.801-11.419 12.639-13.422 16.44l-.809 1.535.893.7c2.506 1.968 9.452 6.458 9.548 6.172.06-.18-.21-1.258-.602-2.394m-11.368-5.403c3.251-6.301 12.187-16.591 19.331-22.26 5.75-4.562 15.128-10.719 21.995-14.44 1.842-.997 8.22-3.27 9.633-6.57 1.817-4.243-1.805-9.745-4.543-11.79-.702-.524-2.028-.823-3.844-.757-3.258.119-7.648 1.043-9.672 1.314-1.535.206-5.685.69-9.222 1.076-19.91 2.175-25.302 2.348-30.544.982-2.798-.729-8.604-2.738-11.558-4-.537-.229-.448.085.463 1.645q8.04 13.77 13.086 37.093c1.275 5.895 2.57 13.754 2.865 17.384.278 3.432.397 3.451 2.01.323m25.68-4.157c1.978-.663 3.362-1.918 5.559-5.04 1.14-1.622 3.154-4.115 4.473-5.541 2.968-3.207 3.905-5.566 3.175-8-1.174-3.919-5.227-4.916-8.927-2.195-1.534 1.128-9.054 10.38-10.3 12.672-1.618 2.974-.799 6.48 1.816 7.773 1.7.842 2.491.904 4.203.33m16.852-13.125c.214-.214.037-.878-.481-1.799-.898-1.597-1.404-1.862-1.404-.734 0 .4-.241 1.305-.537 2.012l-.537 1.286 1.31-.213c.72-.117 1.463-.365 1.65-.552m119.836-5.675c9.8-14.409 15.135-27.826 17.789-44.74.915-5.836 1.11-19.303.373-25.722C4.51 82.018-14.26 53.128-43.168 35.76c-37.934-22.79-86.94-21.216-123.07 3.954-8.452 5.888-16.618 13.52-22.995 21.491-8.826 11.033-16.041 25.306-19.514 38.603-4.697 17.983-4.505 37 .55 54.638 1.634 5.698 4.944 14.449 5.323 14.07.078-.078-.02-2.062-.219-4.409-.7-8.307.618-15.12 3.274-16.909 1.52-1.023 2.754-.874 4.842.585 1.827 1.277 8.926 4.306 13.4 5.718 5.694 1.797 8.338 2.009 16.716 1.341 4-.318 7.386-.65 7.525-.736s.053-1.572-.193-3.302c-.245-1.73-.456-5.134-.47-7.563l-.023-4.417-1.589-2.55c-7.113-11.413-8.447-23.37-3.76-33.707 2.011-4.435 5.666-8.704 9.608-11.225 1.293-.827 1.82-1.522 2.907-3.833 1.39-2.96 3.566-6.37 5.387-8.443 1.17-1.333 1.182-1.27-.684-3.721-2.44-3.205-4.367-8.025-4.367-10.926 0-3.463 2.165-6.763 5.857-8.926 2.243-1.315 5.895-1.638 8.266-.733 2.622 1.002 4.919 3.103 7.314 6.693 1.22 1.828 2.34 3.371 2.49 3.428.149.057 1.78-.562 3.623-1.376 4.39-1.937 10.89-4.349 14.261-5.292 6.481-1.814 20.312-2.952 27.558-2.268 9.176.866 20.905 4.064 27.79 7.577l1.34.683 1.687-2.665c3.745-5.911 7.292-8.556 11.453-8.54 5.478.022 10.909 5.08 10.892 10.144-.013 3.764-2.366 8.795-6.304 13.478l-1.548 1.841 1.426 2.348c.784 1.291 2.169 3.032 3.077 3.87 3.329 3.068 6.462 8.448 7.863 13.499.485 1.748.658 3.779.703 8.217.054 5.52.161 6.38 1.69 13.575 1.806 8.502 3.447 18.133 5.57 32.688 2.55 17.48 2.64 18.487 2.393 26.971-.123 4.225-.323 8.401-.445 9.28-.193 1.394-.153 1.543.313 1.157.294-.244 1.817-2.33 3.386-4.636m-169.949 1.677c0-.703-1.833-7.653-2.079-7.883-.43-.402-3.28 1.056-3.28 1.679 0 .323.412 1.937.916 3.587l.914 2.999h1.765c1.014 0 1.764-.163 1.764-.382m32.987-1.71c1.252-1.168 1.777-2.084 1.347-2.35-.397-.246-4.682 2.864-4.682 3.398 0 .67 2.252-.038 3.335-1.048m4.505-4.15c1.757-.909 4.238-1.313 5.656-.921 1.56.43 1.748.293 1.21-.888-.328-.72-.303-1.174.118-2.182.495-1.185.489-1.257-.09-1.039-.864.326-6.333 3.776-7.514 4.74-1.122.916-.843 1.046.62.29m9.693-40.256c3.18-1.517 9.79-6.582 12.904-9.89 4.516-4.797 5.654-8.448 4.987-15.997-.615-6.952-2.285-11.415-6.026-16.11-6.078-7.627-13.759-10.634-22.534-8.822-12.245 2.53-20.1 12.36-20.075 25.121.016 7.423 2.766 15.492 7.23 21.207 2.95 3.778 9.507 6.05 16.905 5.859 3.689-.096 4.138-.189 6.609-1.368m-16.816-19.447c-3.626-1.572-5.202-5.448-3.618-8.898.78-1.7 1.577-2.461 3.349-3.201 2.39-.999 5.702-.488 7.525 1.16 1.124 1.017 2.03 3.17 2.03 4.829 0 2.451-1.283 4.507-3.55 5.692-2.12 1.107-3.856 1.234-5.736.418m1.355-4.86c.235-.237.428-.848.428-1.358 0-1.124-.596-1.787-1.607-1.787s-1.608.663-1.608 1.787.597 1.786 1.608 1.786c.412 0 .943-.193 1.179-.429m108.017 15.162c4.552-2.244 9.849-8.219 12.16-13.717 2.986-7.11 3.335-15.145.943-21.737-2.814-7.756-8.947-13.308-16.923-15.32-6.215-1.567-10.378-1.24-15.303 1.2-6.507 3.227-12.23 10.51-14.042 17.87-.891 3.622-.8 10.531.187 14.214 1.972 7.358 7.178 13.616 14.343 17.24 2.877 1.455 3.517 1.547 10.191 1.477l6.083-.064zm-23.146-17.98c-2.152-.624-4.054-3.382-4.06-5.888-.01-3.28 2.795-6.985 5.654-7.468 2.165-.366 3.544.074 5.294 1.687 2.629 2.422 3.272 6.286 1.525 9.159-1.342 2.207-5.342 3.4-8.413 2.51m2.169-3.264c.722-1.032.708-2.376-.035-3.197-.796-.879-1.75-.823-2.426.14-.758 1.084-.698 2.28.159 3.136.927.928 1.613.904 2.302-.08m25.833-37.343c3.984-5.373 5.3-10.176 3.588-13.104-1.02-1.746-3.553-3.6-5.701-4.175-2.199-.588-4.453.056-6.496 1.854-1.553 1.368-5.062 6.119-5.292 7.165-.081.371.88 1.247 2.823 2.57l2.946 2.009.626-.958c.408-.622.608-1.562.572-2.688-.045-1.434.047-1.712.536-1.62.374.071.632.537.702 1.27.125 1.288.277 1.338 2.27.741 1.926-.577 2.569.034 1.374 1.306-.464.494-1.097.901-1.406.906-.917.012-3.6 1.351-3.6 1.796 0 .327 4.575 5.616 4.914 5.68.05.01 1.015-1.229 2.144-2.752m-105.205.894c1.028-.835 2.35-1.865 2.935-2.288l1.065-.77-1.422-.604c-3.323-1.41-3.923-1.793-3.923-2.5 0-.764.484-.831 2.57-.357 1.072.244 1.158.188 1.45-.942.498-1.92 1.282-1.525 1.313.662.045 3.088.566 3.238 3.955 1.138 1.572-.974 2.917-1.942 2.989-2.152.21-.614-3.811-6.271-5.288-7.44-1.725-1.367-2.901-1.805-4.846-1.805-2.873 0-5.729 1.66-7.214 4.195-.796 1.359-.894 1.858-.738 3.776.208 2.574 1.64 5.945 3.705 8.725.764 1.028 1.432 1.872 1.484 1.875s.936-.678 1.965-1.513" style="display:inline;fill:#000;stroke-width:.357243" transform="translate(238.725 1.497)"/><path d="M-111.997 237.621c-11.5-1.047-24.783-4.247-35.01-8.435-7.615-3.12-18.306-9.03-24.188-13.376-1.066-.788-2.138-1.356-2.381-1.262-.244.093-.727 1.191-1.074 2.44s-.882 2.549-1.19 2.889c-1.371 1.517-4.495.943-7.169-1.317-4.33-3.66-10.876-15.867-15.255-28.447-.749-2.15-2.057-4.91-3.114-6.572-2.499-3.928-6.34-11.353-8.319-16.083-8.047-19.235-10.287-41.765-6.214-62.517 6.595-33.601 29.077-62.722 60.688-78.611 38.785-19.496 85.917-16.208 121.376 8.465 8.114 5.646 18.027 14.83 23.848 22.096C1.302 71 9.11 87.551 12.493 104.573c2.624 13.208 2.69 28.723.175 41.808-5.593 29.112-22.947 54.86-48.393 71.803-15.135 10.076-32.647 16.55-51.265 18.952-5.356.69-19.692.97-25.007.485m21.97-5.712c15.92-1.73 31.754-6.776 45.013-14.341 7.848-4.478 15.968-10.717 22.903-17.598l4.683-4.647.405-4.108c1.578-16.04 1.343-21.269-1.933-43.048-2.041-13.57-4.896-29.424-5.49-30.485-.182-.325-.695.407-1.56 2.226-3.027 6.376-8.033 11.685-13.47 14.287 0 0-1.649.739-2.523.944-2.374.558-4.78.757-7.278.758-2.513 0-4.463-.152-6.624-.658-1.402-.328-4.043-1.524-4.043-1.524-8.034-4.07-13.447-10.618-15.665-18.95-1.16-4.359-1.17-11.776-.021-16.015 2.545-9.39 9.86-17.566 18.292-20.45 4.43-1.514 10.704-1.283 16.246.598 1.38.469 2.555.853 2.61.854.728.018-4.237-5.93-6.725-8.058-4.192-3.582-12.58-7.709-20.17-9.921-11.802-3.44-19.481-4.075-33.09-2.73-4.824.476-6.876.877-11.193 2.191-15.316 4.662-29.024 12.874-35.089 21.022-1.651 2.218-3.88 6.073-3.512 6.073.133 0 1.555-.347 3.16-.77 4.443-1.174 9.918-1.107 13.422.163 7.19 2.606 12.963 7.97 16.442 15.277 1.8 3.78 2.448 6.26 2.932 11.23.91 9.355-.722 13.828-7.327 20.08-5.753 5.445-11.381 9.123-15.42 10.075-5.035 1.187-13.44.044-18.46-2.509-.729-.37-1.412-.674-1.518-.674-.359 0-.196 7.525.216 10.023.285 1.725.566 2.48.922 2.48 1.402 0 16.518-1.826 17.603-2.126 2.2-.609 6.872-.84 8.434-.415 1.717.466 5.493 4.028 6.643 6.266.932 1.814 1.196 4.857.65 7.485-.359 1.73-.704 2.345-2.038 3.623l-1.606 1.539.215 2.263a201 201 0 0 1 .362 4.407c.08 1.18.234 2.385.342 2.68.107.295.275.938.373 1.429s.896 2.661 1.774 4.823c1.676 4.123 1.91 4.93 3.95 13.575 1.399 5.93 1.649 10.311.775 13.592-.583 2.187-1.23 3.46-1.632 3.212-.165-.102-.277.023-.25.277.026.254-.445 1.03-1.048 1.722-1.123 1.289-2.275 2.212-1.798 1.44.163-.264.057-.333-.302-.195-.305.117-.555.408-.555.647s-.742.805-1.65 1.258c-1.396.698-1.983.79-3.813.599-1.19-.125-2.43-.467-2.754-.761-.325-.295-.789-.535-1.03-.535-.242 0-.342-.16-.222-.353.12-.195.007-.272-.251-.173-.596.228-3.214-2.28-2.904-2.783.136-.22.059-.268-.188-.115-.26.16-.587-.125-.86-.749a15 15 0 0 0-1.096-1.974c-.36-.532-.535-1.16-.39-1.395.167-.27.113-.334-.148-.173-.227.14-.414.205-.417.144-.003-.06-.492-1.557-1.088-3.325s-1.18-4.22-1.297-5.448c-.118-1.228-.33-2.233-.47-2.233s-.878.588-1.64 1.305c-1.515 1.43-3.791 2.605-5.068 2.617-.448.004-.9.23-1.003.5-.104.27-.06 4.087.1 8.48l.29 7.99 4.644 1.852c16.231 6.47 35.795 9.13 53.229 7.233m57.79-27.854c-2.727-.577-4.97-3.399-5.95-7.482-2.558-10.662-2.917-13.902-1.805-16.247 1.91-4.023 6.694-4.138 9.699-.232 1.357 1.765 1.846 3.306 3.53 11.12 1.316 6.106 1.377 7.98.325 9.999-1.15 2.208-3.456 3.339-5.8 2.842m2.995-1.932c1.07-.75 1.912-2.732 1.912-4.501 0-1.72-2.242-12.216-3.104-14.533-.781-2.1-3.304-4.378-4.847-4.378-2.277 0-3.838 2.03-3.838 4.994 0 2.445 2.461 13.247 3.502 15.37 1.512 3.082 4.373 4.45 6.375 3.048m-78.473-32.65c-1.8-.383-3.248-1.335-4.334-2.85-1.527-2.13-2.857-5.741-3.063-8.312-.188-2.35-.193-2.36-1.45-2.679-3.433-.872-3.91-6.31-1.066-12.187 1.054-2.18 1.063-2.248.5-3.654-.653-1.634-.423-2.619.896-3.827 1.607-1.471 3.845-2.358 6.414-2.542 0 0 1.475-.277 2.25.023.6.231 1.564 1.195 1.564 1.195.831.871 1.935 1.573 2.938 1.869 5.518 1.622 10.635 6.99 11.282 11.837.18 1.34.067 1.824-.672 2.906-.8 1.171-.854 1.47-.55 3.037.42 2.171.092 5.063-.866 7.624-.858 2.295-3.955 5.76-6.157 6.89-1.553.797-5.479 1.139-7.686.67m4.573-1.998c.249-.249-1.134-2.823-1.592-2.965-.23-.071-.939.336-1.575.905-1.228 1.097-1.188 1.672.154 2.238.707.297 2.652.183 3.013-.178m2.815-.575c.966-.367 1.532-.922 1.543-1.514.007-.381-2.279-1.322-3.211-1.322-.62 0-.679.112-.369.691.204.38.37 1.104.37 1.608 0 1.02.216 1.089 1.667.537m-8.654-.913c.273-1.088.345-.993-1.14-1.494-1.41-.475-1.556.044-.42 1.488.93 1.184 1.264 1.185 1.56.006m14.329-7.838c.129-1.033.123-2.536-.013-3.34l-.247-1.462h-3.418l-.255 4.285c-.141 2.357-.403 4.376-.582 4.487-.628.388-.315.802 1.013 1.343l1.34.547.964-1.992c.53-1.095 1.069-2.836 1.198-3.868m-13.223.825c-.334-5.027-.335-5.032-1.917-4.735-2.58.483-2.57.459-1.542 4.253.932 3.441 1.388 4.06 3.038 4.12.62.022.647-.216.42-3.638m5.911 2.568c.94-.67 1.042-.938 1.045-2.771.002-1.117.104-2.874.228-3.906l.226-1.875h-2.53c-1.39 0-2.633.169-2.761.375s-.034 2.392.209 4.857l.44 4.482 1.051-.21c.578-.116 1.52-.544 2.092-.952m-9.632-9.487c3.818-1.213 4.444-1.305 10.317-1.518 3.438-.125 6.452-.357 6.698-.516 1.217-.787-.478-4.812-3.106-7.372-1.648-1.605-5.6-3.949-6.658-3.949-.248 0-.636.56-.862 1.245-.226.684-.809 1.557-1.295 1.94-1.114.876-5.246 1.795-7.015 1.56-1.334-.178-1.346-.169-2.284 1.88-1.502 3.28-1.577 8.022-.128 8.022.147 0 2.097-.581 4.333-1.292m2.818-11.076c1.702-.681 2.14-1.36 2.14-3.319 0-1.151-.184-1.564-.904-2.037-1.62-1.061-5.479-.17-7.58 1.752-.443.404-.804.844-.804.976 0 .133.483.909 1.074 1.724 1.01 1.396 1.177 1.483 2.85 1.483.978 0 2.428-.26 3.224-.579m-42.186 72.792c-.042-4.099.053-7.66.21-7.915.183-.297.144-.375-.11-.218-.217.135-1.11-.443-1.985-1.284-1.803-1.734-2.578-3.863-2.22-6.102.326-2.039-.415-1.566-2.1 1.34-1.378 2.377-1.409 2.508-1.4 5.869.006 2.208.233 4.197.635 5.56.683 2.313 2.692 6.505 3.909 8.157.71.963 2.158 1.997 2.845 2.031.16.008.257-3.34.216-7.438m-25.446 3.88c.6-1.757.565-8.125-.07-13.11-.81-6.353-2.702-15.823-3.167-15.856-.222-.015-1.256-.071-2.297-.124-1.04-.052-2.055-.258-2.254-.457-.61-.61-2.355-6.934-2.175-7.877.126-.657.664-1.113 2.084-1.763 1.054-.482 1.915-1.085 1.915-1.339 0-.994-3.612-10.972-5.495-15.18-3.44-7.687-6.966-12.767-9.47-13.64-1.06-.369-1.264-.325-2.023.44-2.554 2.576-2.898 12.746-.848 25.144 1.791 10.837 3.58 17.138 6.997 24.65 6.454 14.185 11.329 20.787 15.112 20.469 1.089-.092 1.324-.281 1.691-1.357m52.608-.168c1.921-1.213 2.837-2.234 3.694-4.12.987-2.17 1.032-7.291.1-11.252-.37-1.572-.696-3.102-.724-3.4s-.146-.7-.262-.893-.403-1.316-.637-2.495c-.64-3.224-1.208-5.004-2.85-8.931-1.686-4.037-2.414-7.067-2.752-11.465-.128-1.665-.332-3.09-.454-3.164-.122-.076-1.344.452-2.715 1.173-2.208 1.16-2.506 1.44-2.603 2.444-.06.624-.342 1.327-.626 1.562-.283.235-.515.71-.515 1.054s1.447 3.355 3.215 6.691c1.769 3.336 3.216 6.231 3.216 6.434 0 .703-1.84 1.569-4.345 2.046-1.384.264-2.622.616-2.75.782-.13.166-.699.818-1.267 1.449-.968 1.075-1.028 1.318-.965 3.93.091 3.795.626 6.948 1.683 9.926.488 1.376.907 2.696.931 2.933.024.238.275.52.557.629.29.11.421.438.302.748-.116.303-.076.468.09.366s.491.233.725.745c.461 1.013 1.644 2.084 3.383 3.065 1.612.91 3.887.804 5.569-.257m-36.248-1.886c-1.665-4.025-2.422-10.363-1.66-13.915.467-2.176 2.787-6.301 3.349-5.954.225.139.289.077.151-.145-.318-.515 1.488-3.146 3.733-5.438.996-1.017 1.724-1.937 1.617-2.044-.284-.284-4.025 3.045-7.247 6.448-3.034 3.206-7.785 9.335-9.725 12.546-1.422 2.354-1.98 1.614 4.59 6.093 4.463 3.044 5.69 3.613 5.192 2.409m-12.497-6.668c2.597-4.887 8.341-12.39 13.015-17 5.917-5.836 15.557-12.86 25.45-18.544 3.934-2.26 4.6-2.776 5.058-3.92 2.177-5.442-.346-12.967-5.172-15.43-1.715-.874-2.17-.867-11.398.188-14.16 1.617-19.78 2.088-25.348 2.125-5.031.032-5.863-.055-9.11-.961-1.964-.548-5.3-1.689-7.412-2.535-2.113-.845-3.84-1.399-3.84-1.229s.383.917.853 1.66c5.026 7.964 10.475 23.953 13.768 40.406.952 4.754 1.399 7.751 2.395 16.056.213 1.77.418 1.674 1.741-.816m26.894-5.174c1.834-.937 2.901-2 4.713-4.69.857-1.272 2.407-3.24 3.446-4.371 2.862-3.118 3.624-4.234 4.096-6 .571-2.137.184-3.994-1.15-5.514-1.305-1.486-3.003-1.9-5.293-1.287-2.406.644-3.485 1.646-8.408 7.81-5.116 6.405-5.991 8.249-5.192 10.942.517 1.742.901 2.259 2.326 3.13 1.388.848 3.781.84 5.462-.02m14.812-12.202c.79-.219 1.34-.592 1.34-.91 0-.576-1.484-3.35-1.795-3.355-.103-.001-.367.68-.587 1.515a59 59 0 0 1-.658 2.323c-.294.911-.162.944 1.7.427m119.435-3.996c11.29-15.702 17.881-32.622 19.798-50.822.95-9.03.34-22.159-1.441-31.023C3.016 86.141-6.97 67.328-21.017 53.018c-17.826-18.16-40.078-29.158-66.33-32.788-5.671-.784-21.577-.9-27.15-.198-15.794 1.989-30.688 6.797-43.227 13.953-5.053 2.885-12.261 7.846-15.897 10.942-19.032 16.207-31.224 35.907-36.256 58.585-1.957 8.817-2.295 12.07-2.299 22.149-.005 12.361 1.015 19.56 4.327 30.544 1.2 3.979 4.168 11.679 4.72 12.247.15.153.198-2.665.108-6.263-.246-9.814.73-13.967 3.615-15.395 1.328-.657 1.336-.657 3.02.244 9.183 4.912 16.905 7.572 23.122 7.965 2.804.177 15.76-.684 16.148-1.073.075-.075-.03-1.161-.233-2.414-.203-1.252-.37-4.625-.372-7.494l-.003-5.216-1.58-2.406c-3.071-4.675-5.017-9.392-6.12-14.833-.846-4.179-.574-11.668.553-15.197 2.049-6.418 5.74-11.485 10.905-14.973 1.56-1.053 2.036-1.695 3.645-4.909 1.018-2.033 2.742-4.873 3.833-6.31 1.09-1.438 1.982-2.69 1.982-2.784s-.632-1.008-1.404-2.03c-1.923-2.548-3.901-6.838-4.31-9.348-.358-2.202-.041-4.464.873-6.232.692-1.338 3.39-3.757 5.252-4.707 2.28-1.164 5.781-1.34 7.912-.398 2.823 1.249 6.09 4.83 9.014 9.883.347.599.479.581 2.2-.29 5.245-2.659 15.592-6.276 20.487-7.162 8.43-1.527 20.987-1.892 27.673-.804 7.66 1.246 14.798 3.326 21.729 6.332 2.119.92 3.32 1.275 3.408 1.01.359-1.077 4.472-6.802 5.595-7.788 2.215-1.945 4.702-2.988 7.123-2.986 2.558 0 4.317.672 6.815 2.6 2.012 1.552 3.53 3.987 3.89 6.24.547 3.423-1.694 9.086-5.482 13.857l-2.209 2.781 1.33 2.22c.732 1.22 2.278 3.155 3.436 4.298 5.876 5.806 8.829 13.798 8.367 22.65-.188 3.597-.102 4.476.836 8.574 2.177 9.516 5.525 29.572 7.888 47.256.962 7.195 1.257 16.172.712 21.637-.233 2.345-.507 4.544-.607 4.888-.392 1.344.547.497 2.572-2.318zm-168.467-.64c0-1.433-1.883-8.205-2.277-8.189-1.04.045-2.911 1.297-3.014 2.017-.125.875 1.238 5.762 1.8 6.45.2.246 1.067.447 1.927.447 1.334 0 1.564-.106 1.564-.725m31.715-.614c.868-.188 2.938-2.448 2.938-3.208 0-.783-.824-.503-2.948 1.003-1.346.955-2.054 1.707-2.054 2.182 0 .552.15.662.625.462a10 10 0 0 1 1.44-.44m6.704-5.492c1.39-.614 2.18-.725 4.174-.582 2.176.156 2.43.11 2.194-.403-.34-.735-.316-2.473.049-3.567.266-.797.234-.82-.575-.402-2.03 1.048-8.18 5.103-8.18 5.394 0 .479.455.393 2.338-.44m17.803-13.54c1.327-1.166 1.703-2.4 1.703-5.592 0-2.531-.952-4.44-3.435-6.893-1.963-1.938-1.993-1.953-4.476-2.093-1.375-.078-2.5-.002-2.5.167 0 .17.544.743 1.21 1.274 1.42 1.133 2.836 3.534 3.856 6.537.593 1.746.697 2.752.56 5.43l-.167 3.288 1.017-.526c.559-.289 1.563-1.006 2.232-1.593m-10.635-25.755c2.65-.846 4.675-2.094 8.893-5.48 6.376-5.118 9.73-9.358 10.568-13.357.535-2.56.2-9.973-.6-13.23-2.72-11.09-12.682-20.078-22.293-20.116-13.74-.056-24.013 9-25.71 22.663-.728 5.852.544 12.146 3.79 18.76 2.251 4.587 4.67 7.518 7.308 8.855 3.485 1.766 10.266 3.067 14.255 2.736.884-.074 2.59-.448 3.79-.831m-15.941-20.626c-.685-.364-1.725-1.339-2.31-2.166-.892-1.256-1.067-1.847-1.067-3.599 0-1.797.155-2.29 1.087-3.46 1.348-1.694 3.78-2.973 5.652-2.973 3.158 0 6.126 2.563 6.54 5.648.356 2.661-1.337 5.735-3.706 6.725-1.68.702-4.71.616-6.196-.175m2.548-4.774c.896-1.676-.962-3.633-2.457-2.586-1.123.787-1.233 1.907-.28 2.859.955.955 2.143.837 2.737-.273m106.141 16.27c6.758-2.646 13.176-10.756 15.503-19.586 1.028-3.905.896-11.226-.273-15.047-2.036-6.653-6.747-12.332-12.514-15.082-7.151-3.41-14.406-3.741-20.038-.913-13.068 6.562-18.53 21.518-13.128 35.954 2.168 5.794 8.25 11.815 14.552 14.407 1.893.779 5.448 1.202 8.218 1.235 2.58.03 6.46-.49 7.68-.967M-64.1 113.068c-1.907-.972-2.65-2.263-2.818-4.897-.117-1.843.01-2.622.637-3.918 2.051-4.237 6.45-5.274 9.82-2.315 2.618 2.299 3.182 7.407 1.066 9.657-.577.613-1.567 1.337-2.199 1.607-1.624.695-5.017.625-6.506-.134m2.963-2.413c.847-.847 1.026-1.868.514-2.939-.927-1.94-3.502-1.137-3.502 1.093 0 1.954 1.78 3.054 2.988 1.846m25.921-37.393c2.145-2.867 4.11-6.877 4.439-9.06.467-3.106-1.537-6.307-4.947-7.898-3.171-1.48-6.222-.846-8.921 1.852-1.465 1.466-4.913 6.543-4.753 7 .054.155 1.385 1.171 2.956 2.258l2.858 1.977.828-.938c.657-.745.807-1.28.727-2.588-.078-1.257.023-1.65.422-1.65.334 0 .566.437.64 1.204.108 1.142.173 1.193 1.25.997a24 24 0 0 0 1.939-.442c.643-.187.803-.092.803.478 0 .941-.619 1.413-2.662 2.028-.93.28-1.992.78-2.358 1.112-.641.58-.57.706 1.91 3.418 1.416 1.549 2.66 2.816 2.762 2.816.104 0 1.052-1.154 2.107-2.564m-104.125-.087c1.482-1.163 2.696-2.23 2.696-2.372 0-.283-2.625-1.407-3.284-1.407-.666 0-1.718-1.128-1.718-1.842 0-.792-.091-.785 1.78-.125 1.668.588 2.15.47 2.15-.526 0-.914.369-1.794.753-1.794.175 0 .319.716.319 1.59 0 1.657.593 3.411 1.154 3.411.178 0 .996-.455 1.818-1.012a48 48 0 0 1 3.022-1.858c.992-.549 1.461-1.023 1.336-1.35-.527-1.372-3.727-5.652-5.25-7.021-3.414-3.07-7.536-2.901-10.995.45-2.79 2.703-3.074 5.266-1.093 9.887.886 2.067 3.864 6.349 4.307 6.193.17-.06 1.522-1.06 3.005-2.224" style="display:inline;fill:#000;stroke-width:.357243" transform="translate(238.725 1.497)"/></g></svg>