<svg xmlns="http://www.w3.org/2000/svg" xmlns:xlink="http://www.w3.org/1999/xlink" xml:space="preserve" width="468.661" height="468.661" viewBox="0 0 124 124"><title>OrcaCD</title><defs><linearGradient id="c"><stop offset="0" style="stop-color:#fafdff;stop-opacity:1"/><stop offset="1" style="stop-color:#cfe7fc;stop-opacity:1"/></linearGradient><linearGradient id="b"><stop offset=".35" style="stop-color:#4a5c7f;stop-opacity:0"/><stop offset="1" style="stop-color:#44689f;stop-opacity:1"/></linearGradient><linearGradient id="a"><stop offset="0" style="stop-color:#828aa1;stop-opacity:1"/><stop offset="1" style="stop-color:#1c253d;stop-opacity:1"/></linearGradient><linearGradient xlink:href="#a" id="d" x1="26.387" x2="109.08" y1="26.387" y2="109.08" gradientUnits="userSpaceOnUse"/><linearGradient xlink:href="#b" id="e" x1="109.08" x2="26.387" y1="26.387" y2="109.08" gradientUnits="userSpaceOnUse"/><linearGradient xlink:href="#c" id="f" x1="103.587" x2="31.88" y1="31.88" y2="103.587" gradientUnits="userSpaceOnUse"/></defs><path d="M35.719 9.26h64.029a26.46 26.46 45 0 1 26.458 26.459v64.029a26.46 26.46 135 0 1-26.458 26.458h-64.03A26.46 26.46 45 0 1 9.26 99.748v-64.03A26.46 26.46 135 0 1 35.72 9.26" style="opacity:1;fill:url(#d);fill-opacity:1;stroke-width:.276;stroke-dasharray:none" transform="translate(-9.819 -9.819)scale(1.06032)"/><path d="M35.719 9.26h64.029a26.46 26.46 45 0 1 26.458 26.459v64.029a26.46 26.46 135 0 1-26.458 26.458h-64.03A26.46 26.46 45 0 1 9.26 99.748v-64.03A26.46 26.46 135 0 1 35.72 9.26" style="fill:url(#e);fill-opacity:1;stroke-width:.276;stroke-dasharray:none" transform="translate(-9.819 -9.819)scale(1.06032)"/><path d="M64.4 25.7c2.87.602 6.511 2.95 9.722 6.263 2.79 2.882 5.616 6.637 7.533 10.018.953 1.69 1.191 2.008 1.577 2.246.567.329 1.94.533 6.08.873 4.822.398 9.008 1.487 12.968 3.359 5.082 2.393 9.915 6.761 13.353 12.06 1.906 2.937 2.805 5.141 2.805 7.807 0 2.825-1.013 4.683-3.52 7.077-2.36 2.268-5.082 3.653-9.802 5.025-6.569 1.895-13.417 2.564-16.849 2.142-.283-.057-1.643-.1-2.085.672-.874 1.463-2.145 3.063-3.608 4.526-3.347 3.358-6.186 4.527-9.896 4.55-2.495.01-3.956-.556-3.956-2.065 0-.726.215-1.237 1.18-2.825 1.248-2.042 2.212-4.22 3.244-7.272.624-1.85 1.464-5.185 1.555-6.126.09-1.09.056-1.112-2.576-1.872a95 95 0 0 1-4.821-1.588c-4.311-1.555-6.058-1.918-9.133-1.918-3.222-.011-5.218.568-7.658 2.179-2.461 1.645-4.367 4.027-4.367 5.468.011.975.556 1.758 1.44 2.053.568.182 2.145.068 3.835-.272 4.322-.896 8.293-1.169 12.48-.874 2.847.205 6.046.715 6.75 1.078.341.243.873 1.214.42 1.883-.683.695-1.203.885-3.767.465-2.53-.397-4.708-.59-7.068-.59-2.496 0-3.767.114-5.865.522-4.243.84-6.939 2.333-11.08 5.964-1.815 1.588-2.015 1.649-1.05 2.012 2.733 1.044 4.945 3.905 7.47 8.057 1.317 2.62 2.186 4.876 2.073 7.429-.17 3.811-1.668 6.296-3.494 5.751-.692-.215-1.123-.669-1.974-2.167-1.396-2.427-2.28-3.165-4.765-3.993-3.528-1.18-5.094-2.144-6.478-4.016-.726-.987-1.397-.836-2.134-.246-2.394 1.918-2.62 2.061-7.316 3.434-2.224.647-3.188 1.202-4.788 2.745-.941.908-1.531 1.282-2.042 1.282-.42 0-.998-.351-1.248-.748-.59-.965-.692-3.676-.215-5.843 1.407-6.478 6.036-11.783 12.343-13.814.726-.238 1.724-.662 1.792-.719.069-.045.16-.488.205-.975.34-3.71 2.076-9.27 4.277-13.67 2.45-4.89 6.432-10.257 10.04-13.535 4.992-4.538 9.915-7.647 15.644-9.893 2.587-1.021 2.746-1.1 2.961-1.52.239-.465.239-1.532-.011-3.551-.533-4.402-1.815-8.758-3.517-11.912-1.35-2.485-1.26-4.062.272-4.742.59-.273 2.213-.363 3.063-.193m24.504 30.79c-2.382.511-3.483 2.134-2.643 3.926.397.85.919 1.452 1.929 2.212 1.928 1.464 4.333 2.517 6.205 2.62.69.024 2.42.11 3.663-.133.679.015 3.424-.778 3.795-.93.788-.276 1.384-.957 1.438-1.284.107-.501-.138-1.827-1.011-2.78-2.167-2.348-9.734-4.402-13.376-3.63m6.875 13.887c-2.734.76-4.89 2.382-6.205 4.674-.636 1.112-1.68 4.617-1.418 4.787.238.148 3.982.102 5.729-.08 5.581-.589 11.276-2.03 15.168-3.856 2.042-.953 3.834-2.224 5.196-3.699.487-.51.85-.953.828-.975s-.647.034-1.384.147c-1.033.136-1.838.17-3.45.125-2.11-.057-3.312-.227-6.295-.874-2.11-.453-3.177-.556-5.333-.51-1.576.034-2.223.09-2.836.26" style="fill:url(#f);fill-opacity:1;stroke:none;stroke-width:.0113449" transform="translate(-5.733 -5.733)"/></svg>