<svg xmlns="http://www.w3.org/2000/svg" width="800" height="800" fill="none" viewBox="0 0 32 32"><path fill="#2684ff" d="M2.909 3a.89.89 0 0 0-.691.322.95.95 0 0 0-.206.753L5.82 27.948A1.23 1.23 0 0 0 7.013 29h18.27a.906.906 0 0 0 .897-.778l3.808-24.143a.95.95 0 0 0-.206-.753.89.89 0 0 0-.69-.321zm16.036 17.255h-5.831l-1.58-8.519h8.824z"/><path fill="url(#a)" fill-rule="evenodd" d="M28.778 11.736h-8.42l-1.413 8.519h-5.831l-6.885 8.44c.218.194.496.303.784.305h18.275a.906.906 0 0 0 .897-.778z" clip-rule="evenodd"/><defs><linearGradient id="a" x1="30.724" x2="20.576" y1="14.122" y2="28.075" gradientUnits="userSpaceOnUse"><stop offset=".18" stop-color="#0052cc"/><stop offset="1" stop-color="#2684ff"/></linearGradient></defs></svg>